<svg width="40" height="40" viewBox="0 0 40 40" fill="none" xmlns="http://www.w3.org/2000/svg">
<path fill-rule="evenodd" clip-rule="evenodd" d="M31.8334 31.9334C32.8168 30.4334 33.1834 29.6668 33.9334 27.9834C28.4001 25.8834 27.5168 18.0001 32.9834 14.9834C31.3168 12.8834 28.9668 11.6667 26.7501 11.6667C25.1501 11.6667 24.0501 12.0834 23.0668 12.4668C22.2334 12.7834 21.4834 13.0667 20.5501 13.0667C19.5501 13.0667 18.6668 12.7501 17.7334 12.4168C16.7168 12.0501 15.6501 11.6667 14.3168 11.6667C11.8334 11.6667 9.18344 13.1834 7.50011 15.7834C5.13344 19.4501 5.55012 26.3167 9.36678 32.1834C10.7334 34.2834 12.5668 36.6334 14.9501 36.6667C15.9501 36.6834 16.6001 36.3834 17.3168 36.0668C18.1334 35.7001 19.0168 35.3001 20.5668 35.3001C22.1168 35.2834 22.9834 35.7001 23.8001 36.0668C24.5001 36.3834 25.1334 36.6834 26.1168 36.6667C28.5334 36.6334 30.4668 34.0334 31.8334 31.9334Z" fill="white"/>
<path fill-rule="evenodd" clip-rule="evenodd" d="M26.4002 3.33325C26.6669 5.16659 25.9169 6.98327 24.9336 8.24994C23.8836 9.61661 22.0502 10.6832 20.2836 10.6166C19.9669 8.84991 20.7836 7.03324 21.7836 5.81657C22.9002 4.48324 24.7836 3.44992 26.4002 3.33325Z" fill="white"/>
</svg>
