<svg width="50" height="50" viewBox="0 0 50 50" fill="none" xmlns="http://www.w3.org/2000/svg">
<rect width="50" height="50" rx="8" fill="#F7F9FF"/>
<path d="M31.6665 33.5734H26.3332L20.3998 37.52C19.5198 38.1067 18.3332 37.4801 18.3332 36.4134V33.5734C14.3332 33.5734 11.6665 30.9067 11.6665 26.9067V18.9067C11.6665 14.9067 14.3332 12.24 18.3332 12.24H31.6665C35.6665 12.24 38.3332 14.9067 38.3332 18.9067V26.9067C38.3332 30.9067 35.6665 33.5734 31.6665 33.5734Z" stroke="#7B9EE0" stroke-width="2" stroke-miterlimit="10" stroke-linecap="round" stroke-linejoin="round"/>
<path d="M24.9999 24.1466V23.8667C24.9999 22.96 25.56 22.48 26.12 22.0933C26.6666 21.72 27.2132 21.24 27.2132 20.36C27.2132 19.1334 26.2266 18.1466 24.9999 18.1466C23.7733 18.1466 22.7866 19.1334 22.7866 20.36" stroke="#7B9EE0" stroke-width="2" stroke-linecap="round" stroke-linejoin="round"/>
<path d="M24.9942 27.3333H25.0062" stroke="#7B9EE0" stroke-width="2" stroke-linecap="round" stroke-linejoin="round"/>
</svg>
